<svg width="64" height="64" viewBox="0 0 64 64" fill="none" xmlns="http://www.w3.org/2000/svg">
  <rect x="2" y="2" width="60" height="60" rx="14" fill="url(#logoGrad)"/>
  <circle cx="32" cy="26" r="12" stroke="white" stroke-width="1.8" fill="none" opacity="0.9"/>
  <ellipse cx="32" cy="26" rx="5.5" ry="12" stroke="white" stroke-width="1.2" fill="none" opacity="0.7"/>
  <line x1="20" y1="26" x2="44" y2="26" stroke="white" stroke-width="1.2" opacity="0.7"/>
  <line x1="21" y1="20" x2="43" y2="20" stroke="white" stroke-width="0.8" opacity="0.5"/>
  <line x1="21" y1="32" x2="43" y2="32" stroke="white" stroke-width="0.8" opacity="0.5"/>
  <path d="M14 40 L14 52 L50 52 L50 40" fill="white" fill-opacity="0.25" stroke="white" stroke-width="1.8" stroke-linejoin="round"/>
  <path d="M12 40 L32 30 L52 40" fill="none" stroke="white" stroke-width="2" stroke-linejoin="round" stroke-linecap="round"/>
  <rect x="26" y="43" width="12" height="9" rx="1.5" fill="white" fill-opacity="0.4" stroke="white" stroke-width="1.2"/>
  <rect x="16" y="45" width="5" height="5" rx="0.8" fill="white" fill-opacity="0.35" stroke="white" stroke-width="0.8"/>
  <rect x="43" y="45" width="5" height="5" rx="0.8" fill="white" fill-opacity="0.35" stroke="white" stroke-width="0.8"/>
  <g transform="translate(44, 44) rotate(-45)">
    <rect x="-1.5" y="-7" width="3" height="10" rx="1.2" fill="white" fill-opacity="0.85"/>
    <circle cx="0" cy="-8" r="3" fill="none" stroke="white" stroke-width="1.5" opacity="0.85"/>
  </g>
  <defs>
    <linearGradient id="logoGrad" x1="0" y1="0" x2="64" y2="64">
      <stop offset="0%" stop-color="#3b82f6"/>
      <stop offset="50%" stop-color="#6366f1"/>
      <stop offset="100%" stop-color="#8b5cf6"/>
    </linearGradient>
  </defs>
</svg>
